<mxfile host="app.diagrams.net" modified="2024-01-08T20:23:09.074Z" agent="Mozilla/5.0 (Macintosh; Intel Mac OS X 10_15_7) AppleWebKit/537.36 (KHTML, like Gecko) Chrome/120.0.0.0 Safari/537.36" version="22.1.17" etag="-CZYisGVdKwLgWk1OeIz" type="github">
  <diagram name="Page-1" id="QdtrybwfCoYyQuq9bG4p">
    <mxGraphModel>
      <root>
        <mxCell id="0" />
        <mxCell id="1" parent="0" />
      </root>
    </mxGraphModel>
  </diagram>
</mxfile>
